<svg xmlns="http://www.w3.org/2000/svg" width="512" height="512" viewBox="0 0 512 512">
  <path fill="#272525" fill-rule="evenodd" stroke="#979797" d="M241,79.2183894 L241,79 L209,79 L209,507.694961 C90.0631472,485.624977 0,381.330176 0,256 C0,114.615104 114.615104,0 256,0 C397.384896,0 512,114.615104 512,256 C512,397.384896 397.384896,512 256,512 C250.964724,512 245.963401,511.854627 241,511.56785 L241,288.781611 C242.713125,288.92646 244.706402,289 247,289 C304.989899,289 352,241.989899 352,184 C352,126.010101 304.989899,79 247,79 C244.706402,79 242.713125,79.0735396 241,79.2183894 Z M241,93.3918479 C263.571343,111.629522 323,145.379821 323,184 C323,222.620179 263.571343,256.370478 241,274.608152 L241,93.3918479 Z"/>
</svg>
