<svg xmlns="http://www.w3.org/2000/svg" viewBox="0 0 236.22 87.74"><defs><style>.cls-1{fill-rule:evenodd;}</style></defs><title>Asset 3</title><g id="Layer_2" data-name="Layer 2"><g id="Layer_1-2" data-name="Layer 1"><path d="M4.62,79.3v6.28a.9.9,0,0,0,.19.6,1.17,1.17,0,0,0,.63.33v.41H0v-.41a1.4,1.4,0,0,0,.64-.33.9.9,0,0,0,.18-.6V70.83a.88.88,0,0,0-.18-.6A1.31,1.31,0,0,0,0,69.9v-.41H15.43a.84.84,0,0,0,.58-.18,1.27,1.27,0,0,0,.33-.65h.41v4.51h-.41a1.16,1.16,0,0,0-.33-.63.84.84,0,0,0-.58-.18H4.62v4.16h7.07a.9.9,0,0,0,.6-.18,1.52,1.52,0,0,0,.33-.64H13v4.4h-.41a1.47,1.47,0,0,0-.33-.63,1,1,0,0,0-.6-.17Zm37.44-8.47V80.6a7,7,0,0,1-1,4.15c-1.23,1.65-3.76,2.47-7.61,2.47a12.29,12.29,0,0,1-6.36-1.34,4,4,0,0,1-1.79-2.12,9,9,0,0,1-.49-3.16V70.83a.88.88,0,0,0-.18-.6A1.31,1.31,0,0,0,24,69.9v-.41h5.46v.41a1.24,1.24,0,0,0-.65.33.88.88,0,0,0-.18.6v8.69a11,11,0,0,0,.16,2.23A2.56,2.56,0,0,0,29.39,83c.82.86,2.21,1.3,4.19,1.3s3.38-.44,4.2-1.3a2.62,2.62,0,0,0,.61-1.21,10.81,10.81,0,0,0,.17-2.23V70.83a.88.88,0,0,0-.18-.6,1.31,1.31,0,0,0-.64-.33v-.41h5.14v.41a1.31,1.31,0,0,0-.64.33.88.88,0,0,0-.18.6ZM55.57,84.05H66.28a.86.86,0,0,0,.6-.18,1.27,1.27,0,0,0,.33-.64h.41v4.51h-.41a1.23,1.23,0,0,0-.33-.64.86.86,0,0,0-.6-.18H51v-.41a1.4,1.4,0,0,0,.64-.33.9.9,0,0,0,.18-.6V70.83a.88.88,0,0,0-.18-.6A1.31,1.31,0,0,0,51,69.9v-.41h5.44v.41a1.2,1.2,0,0,0-.64.33.88.88,0,0,0-.18.6V84.05Zm23.8,0H90.08a.9.9,0,0,0,.6-.18,1.46,1.46,0,0,0,.33-.64h.41v4.51H91a1.4,1.4,0,0,0-.33-.64.9.9,0,0,0-.6-.18H74.74v-.41a1.4,1.4,0,0,0,.64-.33.9.9,0,0,0,.18-.6V70.83a.88.88,0,0,0-.18-.6,1.31,1.31,0,0,0-.64-.33v-.41h5.45v.41a1.24,1.24,0,0,0-.65.33.93.93,0,0,0-.17.6V84.05Zm40.37-4.74h-10v6.28a.82.82,0,0,0,.19.59,1.17,1.17,0,0,0,.63.33v.41h-5.45v-.41a1.4,1.4,0,0,0,.64-.33.87.87,0,0,0,.18-.59V70.82a.85.85,0,0,0-.18-.59,1.31,1.31,0,0,0-.64-.33v-.41h5.45v.41a1.16,1.16,0,0,0-.64.33.85.85,0,0,0-.18.59v5.62h10V70.82a.9.9,0,0,0-.17-.59,1.24,1.24,0,0,0-.64-.33v-.41h5.44v.41a1.31,1.31,0,0,0-.64.33.85.85,0,0,0-.18.59V85.59a.87.87,0,0,0,.18.59,1.4,1.4,0,0,0,.64.33v.41h-5.44v-.41a1.17,1.17,0,0,0,.63-.33.87.87,0,0,0,.18-.59V79.31Zm30.8-8.48V80.6a7,7,0,0,1-1,4.15q-1.85,2.48-7.6,2.47a12.33,12.33,0,0,1-6.37-1.34,4.07,4.07,0,0,1-1.79-2.12,9.28,9.28,0,0,1-.49-3.16V70.83a.93.93,0,0,0-.17-.6,1.4,1.4,0,0,0-.65-.33v-.41h5.46v.41a1.24,1.24,0,0,0-.65.33.88.88,0,0,0-.18.6v8.69a11.76,11.76,0,0,0,.16,2.23,2.56,2.56,0,0,0,.63,1.21c.82.86,2.21,1.3,4.19,1.3s3.38-.44,4.2-1.3a2.62,2.62,0,0,0,.61-1.21,10.81,10.81,0,0,0,.17-2.23V70.83a.88.88,0,0,0-.18-.6,1.31,1.31,0,0,0-.64-.33v-.41h5.14v.41a1.31,1.31,0,0,0-.64.33.88.88,0,0,0-.18.6Zm19.62,16.09-6.42-12v10.7a.9.9,0,0,0,.18.6,1.4,1.4,0,0,0,.64.33v.41h-5.13v-.41a1.4,1.4,0,0,0,.64-.33.9.9,0,0,0,.18-.6V70.82a.85.85,0,0,0-.18-.59,1.31,1.31,0,0,0-.64-.33v-.41h6.72v.41a.68.68,0,0,0-.6.7,1.27,1.27,0,0,0,.18.59l4.75,9,4.81-8.85a2.16,2.16,0,0,0,.32-.85c0-.35-.21-.55-.64-.59v-.41h6.59v.41a1.36,1.36,0,0,0-.64.33.9.9,0,0,0-.18.59V85.58a1,1,0,0,0,.18.6,1.46,1.46,0,0,0,.64.33v.41h-5.44v-.41a1.17,1.17,0,0,0,.63-.33.85.85,0,0,0,.19-.6V74.88l-6.78,12Zm32.61-4.45h-7.93l-1.17,2.46a2,2,0,0,0-.24.8c0,.37.28.64.86.78v.41h-5.77v-.41a1.58,1.58,0,0,0,.78-.36,3.66,3.66,0,0,0,.61-1l6.41-13.39a2.54,2.54,0,0,0,.3-1c0-.39-.24-.67-.74-.84v-.41h6.18v.41q-.75.21-.75.75a1.86,1.86,0,0,0,.24.84l6.64,13.44a4.36,4.36,0,0,0,.75,1.17,1.66,1.66,0,0,0,.85.41v.41h-6.41v-.41c.57-.09.84-.36.84-.79a2,2,0,0,0-.25-.79l-1.2-2.46Zm-1.1-2.39-2.82-6.21L196,80.08Zm19.2-5.1v10.6a1,1,0,0,0,.17.6,1.52,1.52,0,0,0,.64.33v.41h-5.12v-.41a1.4,1.4,0,0,0,.64-.33.9.9,0,0,0,.18-.6V70.82a.85.85,0,0,0-.18-.59,1.31,1.31,0,0,0-.64-.33v-.41h5.93v.41c-.37.09-.55.29-.55.59a1.07,1.07,0,0,0,.35.67l9.62,10V70.82a.85.85,0,0,0-.18-.59,1.31,1.31,0,0,0-.64-.33v-.41h5.13v.41a1.31,1.31,0,0,0-.64.33.85.85,0,0,0-.18.59V85.58a.9.9,0,0,0,.18.6,1.4,1.4,0,0,0,.64.33v.41h-5.5v-.41c.36-.08.54-.26.54-.55s-.21-.47-.63-.89Z"/><path class="cls-1" d="M122.63,27.16l0-3.6,5.61-8.9a13.16,13.16,0,0,1,4.65-4.81l5.69-6.58c2.5-.73,4.91-1.37,7.35-1.95l6-1.32-5.86,7.09-.18,0-.17.05-9,2.62-.18,0-.52.16-.18.05-.15,0-.73.22a11.68,11.68,0,0,0-6.61,7.81l.06,3.82v1.58h0c-.12,10.78.15,21.6-.25,32.28h-5.6V41.2H111.85V56H106.1V18.33a11.68,11.68,0,0,0-6.6-7.82l-.74-.21-.14,0-.18,0-.53-.16L97.74,10l-9-2.62-.18,0-.17,0L82.55.19l6,1.31c2.45.59,4.85,1.22,7.36,2L101.56,10a13.05,13.05,0,0,1,4.64,4.81l1.87,3h0l.33.51,1,1.6h0l2.41,3.82,0,3.6V39.71h10.78V27.16ZM96.46,23.7c-2.5-.74-4.91-1.37-7.35-2l-6-1.31L89,27.52l.18.05.18.05,5.41,1.58,8,2.16L96.46,23.7ZM138,23.51l-6.29,7.66,8-2.15,5.42-1.59.18-.05.17-.05,5.87-7.09-6,1.31C142.93,22.14,140.53,22.77,138,23.51Z"/></g></g></svg>