<svg xmlns="http://www.w3.org/2000/svg" width="36" height="36" viewBox="0 0 36 36">
  <path d="M2.846,4.36 C2.876,4.065 2.763,3.774 2.543,3.576 L0.303,0.876 L0.303,0.473 L7.26,0.473 L12.638,12.268 L17.366,0.473 L24,0.473 L24,0.876 L22.083,2.713 C21.918,2.839 21.836,3.046 21.87,3.251 L21.87,16.751 C21.836,16.955 21.918,17.161 22.083,17.288 L23.953,19.125 L23.953,19.528 L14.543,19.528 L14.543,19.125 L16.48,17.243 C16.67,17.053 16.67,16.997 16.67,16.705 L16.67,5.794 L11.28,19.482 L10.553,19.482 L4.278,5.794 L4.278,14.968 C4.226,15.354 4.354,15.742 4.625,16.021 L7.145,19.081 L7.145,19.483 L0,19.483 L0,19.08 L2.52,16.02 C2.79,15.742 2.91,15.35 2.846,14.968 L2.846,4.36 Z" transform="translate(6 8)"/>
</svg>
