<?xml version="1.0" standalone="no"?>
<!DOCTYPE svg PUBLIC "-//W3C//DTD SVG 20010904//EN"
 "http://www.w3.org/TR/2001/REC-SVG-20010904/DTD/svg10.dtd">
<svg version="1.0" xmlns="http://www.w3.org/2000/svg"
 width="471.000000pt" height="471.000000pt" viewBox="0 0 471.000000 471.000000"
 preserveAspectRatio="xMidYMid meet">
<metadata>
Created by potrace 1.11, written by Peter Selinger 2001-2013
</metadata>
<g transform="translate(0.000000,471.000000) scale(0.100000,-0.100000)"
fill="#000000" stroke="none">
<path d="M0 2355 l0 -2355 2355 0 2355 0 0 2355 0 2355 -2355 0 -2355 0 0
-2355z m3883 1323 c-11 -13 -66 -79 -123 -148 -57 -69 -106 -129 -110 -133 -4
-4 -119 -40 -256 -81 -137 -40 -269 -83 -294 -96 -70 -36 -171 -144 -211 -225
l-34 -70 -5 -855 c-3 -470 -7 -856 -8 -857 -1 -2 -56 -3 -122 -3 l-120 0 0
325 0 325 -245 0 -245 0 0 -330 0 -330 -125 0 -125 0 -2 853 -3 853 -38 78
c-44 87 -124 176 -200 221 -28 16 -156 59 -300 101 -138 41 -257 79 -263 86
-30 31 -243 293 -240 295 5 5 383 -84 487 -114 l96 -28 126 -146 c70 -80 143
-158 164 -172 74 -51 123 -114 272 -352 l151 -239 0 -358 0 -358 243 2 242 3
5 370 5 370 143 225 c138 215 212 309 277 350 17 10 88 86 159 168 l128 150
122 32 c141 38 435 108 455 109 11 1 9 -5 -6 -21z m-64 -950 c-28 -35 -85
-104 -126 -154 l-74 -91 -142 -41 c-78 -23 -209 -60 -292 -82 -82 -22 -156
-43 -164 -46 -10 -3 -11 -1 -4 8 81 103 259 316 271 325 14 9 169 50 507 131
79 19 80 16 24 -50z m-2807 18 c148 -34 407 -101 412 -108 16 -21 244 -298
258 -314 17 -19 -2 -16 -174 31 -106 29 -244 67 -306 85 l-113 33 -116 141
c-147 179 -137 166 -125 166 5 0 79 -15 164 -34z"/>
</g>
</svg>
